<mxfile host="app.diagrams.net" modified="2021-06-01T08:14:47.320Z" agent="5.0 (Windows NT 10.0; Win64; x64) AppleWebKit/537.36 (KHTML, like Gecko) Chrome/90.0.4430.212 Safari/537.36" etag="rRLulRmKpC4JSI8X7Clu" version="14.7.2" type="github">
  <diagram name="Page-1" id="74e2e168-ea6b-b213-b513-2b3c1d86103e">
    <mxGraphModel dx="1056" dy="567" grid="1" gridSize="10" guides="1" tooltips="1" connect="1" arrows="1" fold="1" page="1" pageScale="1" pageWidth="1100" pageHeight="850" background="none" math="0" shadow="0">
      <root>
        <mxCell id="0" />
        <mxCell id="1" parent="0" />
        <mxCell id="QDTUS5n7qcsJCPvnCYus-1" value="администрация" style="rounded=0;whiteSpace=wrap;html=1;" vertex="1" parent="1">
          <mxGeometry x="150" y="560" width="120" height="60" as="geometry" />
        </mxCell>
        <mxCell id="QDTUS5n7qcsJCPvnCYus-2" value="отдел по работе с продавцами" style="rounded=0;whiteSpace=wrap;html=1;" vertex="1" parent="1">
          <mxGeometry x="760" y="520" width="120" height="60" as="geometry" />
        </mxCell>
        <mxCell id="QDTUS5n7qcsJCPvnCYus-3" value="база данных" style="rounded=0;whiteSpace=wrap;html=1;" vertex="1" parent="1">
          <mxGeometry x="430" y="360" width="120" height="60" as="geometry" />
        </mxCell>
        <mxCell id="QDTUS5n7qcsJCPvnCYus-4" value="отдел по работе с покупателями" style="rounded=0;whiteSpace=wrap;html=1;" vertex="1" parent="1">
          <mxGeometry x="150" y="160" width="120" height="60" as="geometry" />
        </mxCell>
        <mxCell id="QDTUS5n7qcsJCPvnCYus-6" value="отправляет&amp;nbsp;&lt;br&gt;данные" style="rhombus;whiteSpace=wrap;html=1;rotation=-60;" vertex="1" parent="1">
          <mxGeometry x="310" y="240" width="80" height="120" as="geometry" />
        </mxCell>
        <mxCell id="QDTUS5n7qcsJCPvnCYus-7" value="&lt;span&gt;отправляет&amp;nbsp;&lt;/span&gt;&lt;br&gt;&lt;span&gt;данные&lt;/span&gt;" style="rhombus;whiteSpace=wrap;html=1;rotation=44;" vertex="1" parent="1">
          <mxGeometry x="320" y="420" width="80" height="120" as="geometry" />
        </mxCell>
        <mxCell id="QDTUS5n7qcsJCPvnCYus-8" value="&lt;span&gt;отправляет&amp;nbsp;&lt;/span&gt;&lt;br&gt;&lt;span&gt;данные&lt;/span&gt;" style="rhombus;whiteSpace=wrap;html=1;rotation=-65;" vertex="1" parent="1">
          <mxGeometry x="610" y="415" width="80" height="130" as="geometry" />
        </mxCell>
        <mxCell id="QDTUS5n7qcsJCPvnCYus-9" value="" style="endArrow=none;html=1;entryX=1;entryY=1;entryDx=0;entryDy=0;exitX=0.5;exitY=0;exitDx=0;exitDy=0;" edge="1" parent="1" source="QDTUS5n7qcsJCPvnCYus-6" target="QDTUS5n7qcsJCPvnCYus-4">
          <mxGeometry width="50" height="50" relative="1" as="geometry">
            <mxPoint x="400" y="380" as="sourcePoint" />
            <mxPoint x="450" y="330" as="targetPoint" />
          </mxGeometry>
        </mxCell>
        <mxCell id="QDTUS5n7qcsJCPvnCYus-10" value="" style="endArrow=none;html=1;exitX=0.5;exitY=1;exitDx=0;exitDy=0;entryX=0;entryY=0;entryDx=0;entryDy=0;" edge="1" parent="1" source="QDTUS5n7qcsJCPvnCYus-6" target="QDTUS5n7qcsJCPvnCYus-3">
          <mxGeometry width="50" height="50" relative="1" as="geometry">
            <mxPoint x="400" y="380" as="sourcePoint" />
            <mxPoint x="450" y="330" as="targetPoint" />
          </mxGeometry>
        </mxCell>
        <mxCell id="QDTUS5n7qcsJCPvnCYus-11" value="" style="endArrow=none;html=1;exitX=0.5;exitY=0;exitDx=0;exitDy=0;entryX=0;entryY=1;entryDx=0;entryDy=0;" edge="1" parent="1" source="QDTUS5n7qcsJCPvnCYus-7" target="QDTUS5n7qcsJCPvnCYus-3">
          <mxGeometry width="50" height="50" relative="1" as="geometry">
            <mxPoint x="400" y="470" as="sourcePoint" />
            <mxPoint x="450" y="420" as="targetPoint" />
          </mxGeometry>
        </mxCell>
        <mxCell id="QDTUS5n7qcsJCPvnCYus-12" value="" style="endArrow=none;html=1;exitX=1;exitY=0;exitDx=0;exitDy=0;entryX=0.5;entryY=1;entryDx=0;entryDy=0;" edge="1" parent="1" source="QDTUS5n7qcsJCPvnCYus-1" target="QDTUS5n7qcsJCPvnCYus-7">
          <mxGeometry width="50" height="50" relative="1" as="geometry">
            <mxPoint x="400" y="470" as="sourcePoint" />
            <mxPoint x="450" y="420" as="targetPoint" />
          </mxGeometry>
        </mxCell>
        <mxCell id="QDTUS5n7qcsJCPvnCYus-13" value="" style="endArrow=none;html=1;entryX=1;entryY=1;entryDx=0;entryDy=0;exitX=0.5;exitY=0;exitDx=0;exitDy=0;" edge="1" parent="1" source="QDTUS5n7qcsJCPvnCYus-8" target="QDTUS5n7qcsJCPvnCYus-3">
          <mxGeometry width="50" height="50" relative="1" as="geometry">
            <mxPoint x="400" y="470" as="sourcePoint" />
            <mxPoint x="450" y="420" as="targetPoint" />
          </mxGeometry>
        </mxCell>
        <mxCell id="QDTUS5n7qcsJCPvnCYus-14" value="" style="endArrow=none;html=1;entryX=0.5;entryY=1;entryDx=0;entryDy=0;exitX=0;exitY=0;exitDx=0;exitDy=0;" edge="1" parent="1" source="QDTUS5n7qcsJCPvnCYus-2" target="QDTUS5n7qcsJCPvnCYus-8">
          <mxGeometry width="50" height="50" relative="1" as="geometry">
            <mxPoint x="400" y="470" as="sourcePoint" />
            <mxPoint x="450" y="420" as="targetPoint" />
          </mxGeometry>
        </mxCell>
        <mxCell id="QDTUS5n7qcsJCPvnCYus-15" value="данные о покупателе" style="ellipse;whiteSpace=wrap;html=1;" vertex="1" parent="1">
          <mxGeometry x="60" y="50" width="130" height="60" as="geometry" />
        </mxCell>
        <mxCell id="QDTUS5n7qcsJCPvnCYus-16" value="данные о продавце" style="ellipse;whiteSpace=wrap;html=1;" vertex="1" parent="1">
          <mxGeometry x="780" y="400" width="120" height="60" as="geometry" />
        </mxCell>
        <mxCell id="QDTUS5n7qcsJCPvnCYus-17" value="id покупателя" style="ellipse;whiteSpace=wrap;html=1;" vertex="1" parent="1">
          <mxGeometry x="240" y="50" width="140" height="60" as="geometry" />
        </mxCell>
        <mxCell id="QDTUS5n7qcsJCPvnCYus-18" value="id продавца" style="ellipse;whiteSpace=wrap;html=1;" vertex="1" parent="1">
          <mxGeometry x="920" y="470" width="140" height="70" as="geometry" />
        </mxCell>
        <mxCell id="QDTUS5n7qcsJCPvnCYus-19" value="номер купленного товара" style="ellipse;whiteSpace=wrap;html=1;" vertex="1" parent="1">
          <mxGeometry x="330" y="130" width="120" height="70" as="geometry" />
        </mxCell>
        <mxCell id="QDTUS5n7qcsJCPvnCYus-21" value="номер товара" style="ellipse;whiteSpace=wrap;html=1;" vertex="1" parent="1">
          <mxGeometry x="940" y="590" width="120" height="70" as="geometry" />
        </mxCell>
        <mxCell id="QDTUS5n7qcsJCPvnCYus-22" value="" style="endArrow=none;html=1;entryX=0.5;entryY=1;entryDx=0;entryDy=0;exitX=0.189;exitY=-0.04;exitDx=0;exitDy=0;exitPerimeter=0;" edge="1" parent="1" source="QDTUS5n7qcsJCPvnCYus-4" target="QDTUS5n7qcsJCPvnCYus-15">
          <mxGeometry width="50" height="50" relative="1" as="geometry">
            <mxPoint x="430" y="320" as="sourcePoint" />
            <mxPoint x="480" y="270" as="targetPoint" />
          </mxGeometry>
        </mxCell>
        <mxCell id="QDTUS5n7qcsJCPvnCYus-23" value="" style="endArrow=none;html=1;entryX=0.314;entryY=0.995;entryDx=0;entryDy=0;entryPerimeter=0;exitX=0.652;exitY=-0.011;exitDx=0;exitDy=0;exitPerimeter=0;" edge="1" parent="1" source="QDTUS5n7qcsJCPvnCYus-4" target="QDTUS5n7qcsJCPvnCYus-17">
          <mxGeometry width="50" height="50" relative="1" as="geometry">
            <mxPoint x="430" y="320" as="sourcePoint" />
            <mxPoint x="480" y="270" as="targetPoint" />
          </mxGeometry>
        </mxCell>
        <mxCell id="QDTUS5n7qcsJCPvnCYus-24" value="" style="endArrow=none;html=1;entryX=0.022;entryY=0.614;entryDx=0;entryDy=0;entryPerimeter=0;exitX=1;exitY=0.5;exitDx=0;exitDy=0;" edge="1" parent="1" source="QDTUS5n7qcsJCPvnCYus-4" target="QDTUS5n7qcsJCPvnCYus-19">
          <mxGeometry width="50" height="50" relative="1" as="geometry">
            <mxPoint x="430" y="320" as="sourcePoint" />
            <mxPoint x="480" y="270" as="targetPoint" />
          </mxGeometry>
        </mxCell>
        <mxCell id="QDTUS5n7qcsJCPvnCYus-25" value="" style="endArrow=none;html=1;entryX=0.401;entryY=1.008;entryDx=0;entryDy=0;entryPerimeter=0;exitX=0.425;exitY=0.021;exitDx=0;exitDy=0;exitPerimeter=0;" edge="1" parent="1" source="QDTUS5n7qcsJCPvnCYus-2" target="QDTUS5n7qcsJCPvnCYus-16">
          <mxGeometry width="50" height="50" relative="1" as="geometry">
            <mxPoint x="650" y="530" as="sourcePoint" />
            <mxPoint x="700" y="480" as="targetPoint" />
          </mxGeometry>
        </mxCell>
        <mxCell id="QDTUS5n7qcsJCPvnCYus-26" value="" style="endArrow=none;html=1;entryX=0;entryY=0.5;entryDx=0;entryDy=0;exitX=1;exitY=0.5;exitDx=0;exitDy=0;" edge="1" parent="1" source="QDTUS5n7qcsJCPvnCYus-2" target="QDTUS5n7qcsJCPvnCYus-18">
          <mxGeometry width="50" height="50" relative="1" as="geometry">
            <mxPoint x="650" y="530" as="sourcePoint" />
            <mxPoint x="700" y="480" as="targetPoint" />
          </mxGeometry>
        </mxCell>
        <mxCell id="QDTUS5n7qcsJCPvnCYus-27" value="" style="endArrow=none;html=1;exitX=1;exitY=1;exitDx=0;exitDy=0;" edge="1" parent="1" source="QDTUS5n7qcsJCPvnCYus-2" target="QDTUS5n7qcsJCPvnCYus-21">
          <mxGeometry width="50" height="50" relative="1" as="geometry">
            <mxPoint x="650" y="530" as="sourcePoint" />
            <mxPoint x="700" y="480" as="targetPoint" />
          </mxGeometry>
        </mxCell>
        <mxCell id="QDTUS5n7qcsJCPvnCYus-28" value="номер обращения клиента" style="ellipse;whiteSpace=wrap;html=1;" vertex="1" parent="1">
          <mxGeometry x="240" y="670" width="120" height="70" as="geometry" />
        </mxCell>
        <mxCell id="QDTUS5n7qcsJCPvnCYus-29" value="" style="endArrow=none;html=1;exitX=0.75;exitY=1;exitDx=0;exitDy=0;entryX=0.287;entryY=-0.011;entryDx=0;entryDy=0;entryPerimeter=0;" edge="1" parent="1" source="QDTUS5n7qcsJCPvnCYus-1" target="QDTUS5n7qcsJCPvnCYus-28">
          <mxGeometry width="50" height="50" relative="1" as="geometry">
            <mxPoint x="470" y="530" as="sourcePoint" />
            <mxPoint x="520" y="480" as="targetPoint" />
          </mxGeometry>
        </mxCell>
        <mxCell id="QDTUS5n7qcsJCPvnCYus-30" value="информация о проданном товаре" style="ellipse;whiteSpace=wrap;html=1;" vertex="1" parent="1">
          <mxGeometry x="10" y="160" width="120" height="70" as="geometry" />
        </mxCell>
        <mxCell id="QDTUS5n7qcsJCPvnCYus-31" value="" style="endArrow=none;html=1;exitX=1;exitY=0.5;exitDx=0;exitDy=0;entryX=0;entryY=0.75;entryDx=0;entryDy=0;" edge="1" parent="1" source="QDTUS5n7qcsJCPvnCYus-30" target="QDTUS5n7qcsJCPvnCYus-4">
          <mxGeometry width="50" height="50" relative="1" as="geometry">
            <mxPoint x="350" y="200" as="sourcePoint" />
            <mxPoint x="400" y="150" as="targetPoint" />
          </mxGeometry>
        </mxCell>
        <mxCell id="QDTUS5n7qcsJCPvnCYus-32" value="информация о товаре" style="ellipse;whiteSpace=wrap;html=1;" vertex="1" parent="1">
          <mxGeometry x="790" y="660" width="120" height="65" as="geometry" />
        </mxCell>
        <mxCell id="QDTUS5n7qcsJCPvnCYus-33" value="" style="endArrow=none;html=1;exitX=0.5;exitY=1;exitDx=0;exitDy=0;exitPerimeter=0;entryX=0.5;entryY=0;entryDx=0;entryDy=0;" edge="1" parent="1" source="QDTUS5n7qcsJCPvnCYus-2" target="QDTUS5n7qcsJCPvnCYus-32">
          <mxGeometry width="50" height="50" relative="1" as="geometry">
            <mxPoint x="590" y="510" as="sourcePoint" />
            <mxPoint x="640" y="460" as="targetPoint" />
          </mxGeometry>
        </mxCell>
        <mxCell id="QDTUS5n7qcsJCPvnCYus-34" value="данные покупателя" style="ellipse;whiteSpace=wrap;html=1;" vertex="1" parent="1">
          <mxGeometry x="20" y="265" width="120" height="70" as="geometry" />
        </mxCell>
        <mxCell id="QDTUS5n7qcsJCPvnCYus-35" value="" style="endArrow=none;html=1;exitX=0.675;exitY=-0.021;exitDx=0;exitDy=0;exitPerimeter=0;entryX=0.25;entryY=1;entryDx=0;entryDy=0;" edge="1" parent="1" source="QDTUS5n7qcsJCPvnCYus-34" target="QDTUS5n7qcsJCPvnCYus-4">
          <mxGeometry width="50" height="50" relative="1" as="geometry">
            <mxPoint x="360" y="310" as="sourcePoint" />
            <mxPoint x="410" y="260" as="targetPoint" />
          </mxGeometry>
        </mxCell>
        <mxCell id="QDTUS5n7qcsJCPvnCYus-36" value="номер счёта покупателя" style="ellipse;whiteSpace=wrap;html=1;" vertex="1" parent="1">
          <mxGeometry x="160" y="290" width="130" height="70" as="geometry" />
        </mxCell>
        <mxCell id="QDTUS5n7qcsJCPvnCYus-37" value="" style="endArrow=none;html=1;entryX=0.652;entryY=1.03;entryDx=0;entryDy=0;entryPerimeter=0;exitX=0.5;exitY=0;exitDx=0;exitDy=0;" edge="1" parent="1" source="QDTUS5n7qcsJCPvnCYus-36" target="QDTUS5n7qcsJCPvnCYus-4">
          <mxGeometry width="50" height="50" relative="1" as="geometry">
            <mxPoint x="360" y="300" as="sourcePoint" />
            <mxPoint x="410" y="250" as="targetPoint" />
          </mxGeometry>
        </mxCell>
        <mxCell id="QDTUS5n7qcsJCPvnCYus-38" value="данные продавца" style="ellipse;whiteSpace=wrap;html=1;" vertex="1" parent="1">
          <mxGeometry x="600" y="560" width="120" height="70" as="geometry" />
        </mxCell>
        <mxCell id="QDTUS5n7qcsJCPvnCYus-39" value="номер счёта продавца" style="ellipse;whiteSpace=wrap;html=1;" vertex="1" parent="1">
          <mxGeometry x="650" y="640" width="120" height="72.5" as="geometry" />
        </mxCell>
        <mxCell id="QDTUS5n7qcsJCPvnCYus-40" value="" style="endArrow=none;html=1;entryX=0;entryY=0.5;entryDx=0;entryDy=0;exitX=0.988;exitY=0.363;exitDx=0;exitDy=0;exitPerimeter=0;" edge="1" parent="1" source="QDTUS5n7qcsJCPvnCYus-38" target="QDTUS5n7qcsJCPvnCYus-2">
          <mxGeometry width="50" height="50" relative="1" as="geometry">
            <mxPoint x="550" y="510" as="sourcePoint" />
            <mxPoint x="600" y="460" as="targetPoint" />
          </mxGeometry>
        </mxCell>
        <mxCell id="QDTUS5n7qcsJCPvnCYus-41" value="" style="endArrow=none;html=1;entryX=0.25;entryY=1;entryDx=0;entryDy=0;exitX=1;exitY=0;exitDx=0;exitDy=0;" edge="1" parent="1" source="QDTUS5n7qcsJCPvnCYus-39" target="QDTUS5n7qcsJCPvnCYus-2">
          <mxGeometry width="50" height="50" relative="1" as="geometry">
            <mxPoint x="550" y="510" as="sourcePoint" />
            <mxPoint x="600" y="460" as="targetPoint" />
          </mxGeometry>
        </mxCell>
        <mxCell id="QDTUS5n7qcsJCPvnCYus-42" value="информация о проблеме клиента" style="ellipse;whiteSpace=wrap;html=1;" vertex="1" parent="1">
          <mxGeometry x="90" y="670" width="120" height="75" as="geometry" />
        </mxCell>
        <mxCell id="QDTUS5n7qcsJCPvnCYus-43" value="" style="endArrow=none;html=1;exitX=0.728;exitY=0.053;exitDx=0;exitDy=0;exitPerimeter=0;" edge="1" parent="1" source="QDTUS5n7qcsJCPvnCYus-42">
          <mxGeometry width="50" height="50" relative="1" as="geometry">
            <mxPoint x="60" y="620" as="sourcePoint" />
            <mxPoint x="190" y="620" as="targetPoint" />
          </mxGeometry>
        </mxCell>
        <mxCell id="QDTUS5n7qcsJCPvnCYus-44" value="информация о процессах, происходящих на сайте" style="ellipse;whiteSpace=wrap;html=1;" vertex="1" parent="1">
          <mxGeometry x="140" y="450" width="120" height="70" as="geometry" />
        </mxCell>
        <mxCell id="QDTUS5n7qcsJCPvnCYus-45" value="" style="endArrow=none;html=1;exitX=0.5;exitY=1;exitDx=0;exitDy=0;entryX=0.5;entryY=0;entryDx=0;entryDy=0;" edge="1" parent="1" source="QDTUS5n7qcsJCPvnCYus-44" target="QDTUS5n7qcsJCPvnCYus-1">
          <mxGeometry width="50" height="50" relative="1" as="geometry">
            <mxPoint x="410" y="480" as="sourcePoint" />
            <mxPoint x="460" y="430" as="targetPoint" />
          </mxGeometry>
        </mxCell>
        <mxCell id="QDTUS5n7qcsJCPvnCYus-48" value="информация о технических проблемах" style="ellipse;whiteSpace=wrap;html=1;" vertex="1" parent="1">
          <mxGeometry y="510" width="120" height="70" as="geometry" />
        </mxCell>
        <mxCell id="QDTUS5n7qcsJCPvnCYus-49" value="" style="endArrow=none;html=1;entryX=0.925;entryY=0.796;entryDx=0;entryDy=0;entryPerimeter=0;exitX=0;exitY=0.5;exitDx=0;exitDy=0;" edge="1" parent="1" source="QDTUS5n7qcsJCPvnCYus-1" target="QDTUS5n7qcsJCPvnCYus-48">
          <mxGeometry width="50" height="50" relative="1" as="geometry">
            <mxPoint x="70" y="660" as="sourcePoint" />
            <mxPoint x="120" y="610" as="targetPoint" />
          </mxGeometry>
        </mxCell>
      </root>
    </mxGraphModel>
  </diagram>
</mxfile>
